<svg width="29" height="29" viewBox="0 0 29 29" fill="none" xmlns="http://www.w3.org/2000/svg">
<circle cx="14.3258" cy="14.3258" r="14.3258" fill="#8EF1F9"/>
<path d="M7.47317 8.93239V22.994C5.2867 22.7459 3.58789 20.8898 3.58789 18.6369V8.93239C3.58789 7.8595 4.45764 6.98975 5.53053 6.98975C6.60342 6.98975 7.47317 7.8595 7.47317 8.93239Z" fill="#4285F4" stroke="#4285F4"/>
<path d="M24.7698 9.06447V18.769C24.7698 21.0219 23.071 22.8779 20.8845 23.1261V9.06447C20.8845 7.99158 21.7543 7.12183 22.8272 7.12183C23.9001 7.12183 24.7698 7.99158 24.7698 9.06447Z" fill="#00AC47" stroke="#00AC47"/>
<path d="M6.59282 6.72316L11.4612 9.88469L9.32048 13.1811L4.45214 10.0195C3.54188 9.42838 3.28317 8.21126 3.8743 7.30099C4.46543 6.39073 5.68256 6.13202 6.59282 6.72316Z" fill="#D13639" stroke="#D13639"/>
<path d="M18.2863 9.34123L21.6952 6.66386C22.5451 5.99641 23.7751 6.14426 24.4425 6.99409C25.11 7.84393 24.9621 9.07392 24.1123 9.74137L20.6504 12.4603C19.8152 13.1163 18.6063 12.971 17.9504 12.1358C17.2714 11.2713 17.4218 10.0202 18.2863 9.34123Z" fill="#FFBA00" stroke="#FFBA00"/>
<path d="M14.6411 17.0525L7.97339 12.9091V7.01782L14.4431 11.2259L20.2526 7.21587V13.1681L14.6411 17.0525Z" fill="#EA4435"/>
</svg>
