<svg width="16" height="27" viewBox="0 0 16 27" fill="none" xmlns="http://www.w3.org/2000/svg">
<path d="M9.5339 14.5823V25.7232C9.5339 25.9993 9.31004 26.2232 9.0339 26.2232H6.24106C5.96491 26.2232 5.74106 25.9993 5.74106 25.7232V14.5823C5.74106 14.3061 5.5172 14.0823 5.24106 14.0823H1.5C1.22386 14.0823 1 13.8584 1 13.5823V10.8466C1 10.5705 1.22386 10.3466 1.5 10.3466H5.24105C5.5172 10.3466 5.74113 10.12 5.73973 9.84385C5.7043 2.86679 5.05091 0.34606 14.7595 1.14105C15.0175 1.16218 15.2234 1.37922 15.2234 1.63808V4.4165C15.2234 4.69264 14.9981 4.91679 14.722 4.91254C10.5329 4.84801 9.58474 4.08989 9.53594 9.8438C9.5336 10.1199 9.75776 10.3466 10.0339 10.3466H13.775C14.0511 10.3466 14.275 10.5705 14.275 10.8466V13.5823C14.275 13.8584 14.0511 14.0823 13.775 14.0823H10.0339C9.75776 14.0823 9.5339 14.3061 9.5339 14.5823Z" fill="white" stroke="white" stroke-width="0.5"/>
</svg>
