<svg width="29" height="31" viewBox="0 0 29 31" fill="none" xmlns="http://www.w3.org/2000/svg">
<path d="M13.3867 29.6722L8.2072 21.5232C7.78405 20.8575 8.26231 19.9868 9.05115 19.9868H19.4102C20.199 19.9868 20.6773 20.8575 20.2541 21.5232L15.0746 29.6722C14.6817 30.2903 13.7796 30.2903 13.3867 29.6722Z" fill="#3A54B4" stroke="#3A54B4"/>
<path d="M6.28043 7.69386C7.42726 8.84368 7.46165 10.5422 6.51192 11.4917C5.56218 12.4413 3.86575 12.4044 2.71892 11.2546C1.57209 10.1048 1.5377 8.40626 2.48744 7.45673C3.43717 6.5072 5.1336 6.54403 6.28043 7.69386Z" fill="#3A54B4" stroke="#3A54B4"/>
<path d="M26.0398 11.4678C24.7478 12.5169 23.0384 12.3813 22.1977 11.3434C21.3569 10.3055 21.5774 8.6029 22.8693 7.55386C24.1613 6.50482 25.8707 6.64041 26.7114 7.67833C27.5522 8.71624 27.3317 10.4188 26.0398 11.4678Z" fill="#3A54B4" stroke="#3A54B4"/>
<path d="M12.9881 4.20716C13.3163 6.328 12.204 8.05251 10.7666 8.27554C9.32922 8.49857 7.74774 7.19203 7.41945 5.07119C7.09117 2.95035 8.20348 1.22583 9.64088 1.0028C11.0783 0.779773 12.6598 2.08632 12.9881 4.20716Z" fill="#3A54B4" stroke="#3A54B4"/>
<path d="M21.0088 4.89905C20.8104 7.03602 19.3115 8.43702 17.8631 8.30254C16.4148 8.16806 15.1994 6.51502 15.3979 4.37806C15.5963 2.24109 17.0952 0.840086 18.5436 0.974567C19.9919 1.10905 21.2073 2.76209 21.0088 4.89905Z" fill="#3A54B4" stroke="#3A54B4"/>
<path d="M22.2307 16.4826C22.2307 20.2971 18.709 23.4916 14.2307 23.4916C9.75232 23.4916 6.23065 20.2971 6.23065 16.4826C6.23065 12.6681 9.75232 9.4736 14.2307 9.4736C18.709 9.4736 22.2307 12.6681 22.2307 16.4826Z" fill="#3A54B4" stroke="#3A54B4"/>
<path d="M15.4419 11.4796L19.7316 17.3523C20.4555 18.3434 19.7477 19.7371 18.5203 19.7371H9.941C8.71365 19.7371 8.00578 18.3434 8.72972 17.3523L13.0194 11.4796C13.6186 10.6593 14.8427 10.6593 15.4419 11.4796Z" fill="#FEF7ED" stroke="#3A54B4"/>
</svg>
