<svg width="21" height="20" viewBox="0 0 21 20" fill="none" xmlns="http://www.w3.org/2000/svg">
<path d="M18.1275 5.52288C18.9253 7.35376 15.6808 24.623 0.22297 17.6824C3.89413 17.6326 6.28001 15.4336 6.28001 15.4336C4.82499 15.02 3.18116 14.9339 2.47113 12.4518L4.30672 12.427C2.45352 11.1521 0.989697 10.0885 0.957402 7.70561L2.80179 8.33062C-0.421555 5.77427 1.36558 2.17499 1.36558 2.17499C5.18767 6.13159 7.8986 6.52819 9.9274 6.50069C9.82318 -1.18966 16.4249 1.10424 16.9256 2.39745C18.6587 1.94062 18.079 1.94848 19.4242 1.3886C19.152 2.69231 18.104 3.78986 18.104 3.78986L20.0288 3.2221C19.4683 4.63805 18.7013 5.08179 18.1275 5.52288Z" fill="white" stroke="white"/>
</svg>
