<svg width="21" height="20" viewBox="0 0 21 20" fill="none" xmlns="http://www.w3.org/2000/svg">
<path d="M18.1275 5.56344C18.9253 7.39432 15.6808 24.6636 0.22297 17.7229C3.89413 17.6732 6.28001 15.4742 6.28001 15.4742C4.82499 15.0605 3.18116 14.9745 2.47113 12.4924L4.30672 12.4675C2.45352 11.1926 0.989697 10.1291 0.957402 7.74617L2.80179 8.37119C-0.421555 5.81483 1.36558 2.21556 1.36558 2.21556C5.18767 6.17215 7.8986 6.56875 9.9274 6.54126C9.82318 -1.1491 16.4249 1.14481 16.9256 2.43802C18.6587 1.98119 18.079 1.98904 19.4242 1.42916C19.152 2.73288 18.104 3.83043 18.104 3.83043L20.0288 3.26267C19.4683 4.67862 18.7013 5.12235 18.1275 5.56344Z" fill="white" stroke="white"/>
</svg>
