<svg width="29" height="29" viewBox="0 0 29 29" fill="none" xmlns="http://www.w3.org/2000/svg">
<circle cx="14.3258" cy="14.3258" r="14.3258" fill="#8EF1F9"/>
<path d="M3.03687 19.2625C3.03687 16.3291 4.55165 9.50052 6.16261 7.84147C8.25446 6.27858 9.57689 5.96601 11.4283 5.67749L11.6687 6.20645C8.13424 7.19226 7.72548 8.12998 6.83585 8.73109C14.0491 4.95615 19.988 7.50483 22.1039 8.73109C20.517 6.95182 17.8 6.37475 17.3432 6.20645L17.5115 5.67749C20.9979 6.37474 22.1039 7.21628 22.8012 7.81741C25.6625 12.8186 25.6625 17.6515 25.8789 19.2624C23.3783 22.1477 19.8438 22.3882 19.1224 22.3882L18.2809 21.2581C21.0941 20.2482 21.9356 18.9018 22.6088 18.3007C16.4776 22.3882 10.8272 21.0177 6.25879 18.3007C8.13424 20.657 10.3944 21.0177 10.5867 21.2581L9.86542 22.3882C5.41724 21.8111 4.23908 20.4165 3.03687 19.2625Z" fill="#46626F" stroke="#46626F"/>
<ellipse cx="11.0677" cy="15.1027" rx="1.80332" ry="2.16398" fill="#8EF1F9"/>
<ellipse cx="17.7997" cy="15.1027" rx="1.80332" ry="2.16398" fill="#8EF1F9"/>
</svg>
