<svg width="29" height="29" viewBox="0 0 29 29" fill="none" xmlns="http://www.w3.org/2000/svg">
<circle cx="14.3258" cy="14.3258" r="14.3258" fill="#8EF1F9"/>
<path d="M11.3408 20.8377C3.67087 19.6201 4.66752 12.0975 6.57417 9.92335C6.14083 8.53188 6.05419 6.96648 6.57417 6.18378C9.83281 6.18378 10.0408 7.48828 10.6475 7.48828C14.1574 6.70558 16.2374 7.05345 17.7107 7.48828C20.3107 5.92288 21.4807 5.96636 21.7407 6.18378C22.538 9.17543 21.9573 9.92335 21.9573 9.92335C25.7273 16.1849 21.2207 20.8377 17.0174 20.8377C18.7507 22.7074 17.0174 28.2298 18.4907 28.0124C14.2008 29.2299 11.7741 28.4038 10.0408 28.0124C11.3408 28.3169 10.3875 25.1425 10.8641 24.7946C6.18419 25.1425 6.18418 23.4032 5.70752 22.4465C5.05752 20.8377 3.67087 20.7072 3.84421 20.1854C5.23085 19.4897 7.32486 22.3161 7.25264 22.7509C8.42262 24.1859 10.3441 22.9683 10.8641 22.7509C10.6475 21.7943 11.7741 20.8377 11.3408 20.8377Z" fill="#46626F"/>
</svg>
